<svg width="32" height="32" viewBox="0 0 32 32" fill="none" xmlns="http://www.w3.org/2000/svg">
<path fill-rule="evenodd" clip-rule="evenodd" d="M22.7175 11.4038C23.3033 10.818 23.3033 9.86827 22.7175 9.28249C22.1317 8.6967 21.182 8.6967 20.5962 9.28249L16 13.8787L11.4038 9.28249C10.818 8.6967 9.86827 8.6967 9.28249 9.28249C8.6967 9.86827 8.6967 10.818 9.28249 11.4038L13.8787 16L9.28249 20.5962C8.6967 21.182 8.6967 22.1317 9.28249 22.7175C9.86827 23.3033 10.818 23.3033 11.4038 22.7175L16 18.1213L20.5962 22.7175C21.182 23.3033 22.1317 23.3033 22.7175 22.7175C23.3033 22.1317 23.3033 21.182 22.7175 20.5962L18.1213 16L22.7175 11.4038Z" fill="black"/>
</svg>
